<svg width="32" height="33" viewBox="0 0 32 33" fill="none" xmlns="http://www.w3.org/2000/svg">
<path d="M7.42725 10.4412C9.98725 10.4412 11.4272 9.00116 11.4272 6.44116C11.4272 3.88116 9.98725 2.44116 7.42725 2.44116C4.86725 2.44116 3.42725 3.88116 3.42725 6.44116C3.42725 9.00116 4.86725 10.4412 7.42725 10.4412Z" fill="white" stroke="#ED685A" stroke-width="2.4083" stroke-linecap="round" stroke-linejoin="round"/>
<path d="M11.9988 24.7269V20.1555C11.9988 17.6307 9.95211 15.584 7.42739 15.584C4.90266 15.584 2.85596 17.6307 2.85596 20.1555V24.7269H11.9988Z" fill="#F7D7D2" stroke="#ED685A" stroke-width="2.4083" stroke-linecap="round" stroke-linejoin="round"/>
<path d="M2.85596 24.7269V31.0126" stroke="#ED685A" stroke-width="2.4083" stroke-linecap="round" stroke-linejoin="round"/>
<path d="M11.999 24.7269V31.0126" stroke="#ED685A" stroke-width="2.4083" stroke-linecap="round" stroke-linejoin="round"/>
<path d="M30.0405 12.0125C27.8558 9.34594 26.5236 8.01351 23.9628 5.93483C21.4021 8.01351 20.0699 9.34594 17.8852 12.0125" stroke="#ED685A" stroke-width="2.4083" stroke-linecap="round" stroke-linejoin="round"/>
<path d="M30.0405 20.4702C27.8558 23.1367 26.5236 24.4692 23.9628 26.5478C21.4021 24.4692 20.0699 23.1367 17.8852 20.4702" stroke="#ED685A" stroke-width="2.4083" stroke-linecap="round" stroke-linejoin="round"/>
</svg>
