<svg width="32" height="32" viewBox="0 0 32 32" fill="none" xmlns="http://www.w3.org/2000/svg">
<path d="M5.95501 15.8839C5.37737 15.8315 4.80705 15.7663 4.24509 15.7009C3.14519 15.5728 2.26633 14.6934 2.14392 13.5928C2.00226 12.3191 1.86426 11.0024 1.86426 9.65495L1.86466 9.52871C1.8863 6.10058 4.9067 3.30451 8.28306 3.31485C9.3994 3.32167 10.4622 3.65049 11.3822 4.2102C11.7147 4.12265 12.0566 4.05982 12.4059 4.0239C13.6025 3.90084 14.8187 3.81484 16.051 3.81484C17.2834 3.81484 18.4996 3.90084 19.6961 4.0239C20.0454 4.05982 20.3874 4.12265 20.7199 4.21021C21.7318 3.59454 22.8694 3.31125 24.0467 3.31485C27.3686 3.33513 30.2164 6.20678 30.2374 9.52871L30.2378 9.65495C30.2378 11.0024 30.0998 12.3191 29.9582 13.5928C29.8358 14.6934 28.9569 15.5728 27.857 15.7009C27.295 15.7663 26.7247 15.8315 26.1471 15.8839C26.1258 17.193 26.0534 18.7156 25.9577 20.2721C25.6862 24.6893 22.2111 28.4755 17.793 28.7318C17.2162 28.7653 16.6354 28.7846 16.051 28.7846C15.4666 28.7846 14.8859 28.7653 14.3091 28.7318C9.89096 28.4755 6.41588 24.6893 6.14438 20.2721C6.04871 18.7156 5.97628 17.193 5.95501 15.8839Z" fill="#F7D7D2" stroke="#ED685A" stroke-width="2.4083" stroke-linejoin="round"/>
<path d="M15.334 22.0264H16.7681" stroke="#ED685A" stroke-width="2.4083" stroke-linecap="round" stroke-linejoin="round"/>
<path d="M5.94821 15.8883C6.85732 15.8883 7.74854 15.8008 8.61575 15.7008C9.71576 15.574 10.5973 14.6872 10.7139 13.586C10.8091 12.6868 10.8921 11.7621 10.8921 10.8186" stroke="#ED685A" stroke-width="2.4083" stroke-linecap="round"/>
<path d="M26.1538 15.8883C25.2447 15.8883 24.3535 15.8008 23.4863 15.7008C22.3863 15.574 21.5048 14.6872 21.3882 13.586C21.2929 12.6868 21.21 11.7621 21.21 10.8186" stroke="#ED685A" stroke-width="2.4083" stroke-linecap="round"/>
</svg>
