<svg width="32" height="33" viewBox="0 0 32 33" fill="none" xmlns="http://www.w3.org/2000/svg">
<path d="M2.96242 27.4035C3.08742 28.5599 4.00514 29.4768 5.16124 29.6042C8.63052 29.9867 12.2613 30.5002 15.9997 30.5002C19.7381 30.5002 23.3688 29.9867 26.8381 29.6042C27.9942 29.4768 28.9119 28.5599 29.0369 27.4035C29.4105 23.947 29.8944 20.3299 29.8944 16.6055C29.8944 12.8811 29.4105 9.26397 29.0369 5.80751C28.9119 4.65114 27.9942 3.73423 26.8381 3.60677C23.3688 3.22429 19.7381 2.71082 15.9997 2.71082C12.2613 2.71082 8.63052 3.22429 5.16124 3.60677C4.00514 3.73423 3.08742 4.65114 2.96242 5.80751C2.58879 9.26397 2.10498 12.8811 2.10498 16.6055C2.10498 20.3299 2.58879 23.947 2.96242 27.4035Z" fill="#FDF9F8" stroke="#ED685A" stroke-width="2.4083" stroke-linejoin="round"/>
<path d="M12.5713 9.54272V23.6682" stroke="#ED685A" stroke-width="2.4083" stroke-linecap="round" stroke-linejoin="round"/>
<path d="M12.5713 18.6856H17.1427C18.3551 18.6856 19.5179 18.204 20.3752 17.3466C21.2325 16.4893 21.7141 15.3266 21.7141 14.1142C21.7141 12.9017 21.2325 11.739 20.3752 10.8817C19.5179 10.0244 18.3551 9.54272 17.1427 9.54272H12.5713" stroke="#ED685A" stroke-width="2.4083" stroke-linecap="round" stroke-linejoin="round"/>
</svg>
