<svg width="32" height="33" viewBox="0 0 32 33" fill="none" xmlns="http://www.w3.org/2000/svg">
<path d="M25.4826 23.5811H19.9123L12.8918 30.3981H7.44172C4.90915 30.3981 2.85609 28.3451 2.85609 25.8125V25.413L14.0497 14.5292C14.4777 14.1131 15.0511 13.8803 15.648 13.8803H25.4826C26.7562 13.8803 27.9776 14.3913 28.8782 15.3009C29.7787 16.2105 30.2847 17.4443 30.2847 18.7307C30.2847 20.0171 29.7787 21.2508 28.8782 22.1604C27.9776 23.0701 26.7562 23.5811 25.4826 23.5811Z" fill="#F7D7D2"/>
<path d="M2.8561 25.4128L14.0497 14.5291C14.4777 14.1129 15.0511 13.8801 15.648 13.8801H25.4826C26.7562 13.8801 27.9776 14.3911 28.8782 15.3007C29.7787 16.2104 30.2847 17.4441 30.2847 18.7305C30.2847 20.0169 29.7787 21.2506 28.8782 22.1603C27.9776 23.0699 26.7562 23.5809 25.4826 23.5809H19.9123L12.8918 30.3981" stroke="#ED685A" stroke-width="2.4083" stroke-linecap="round" stroke-linejoin="round"/>
<path d="M1.73534 13.3089L12.8927 2.15149" stroke="#ED685A" stroke-width="2.4083" stroke-linecap="round" stroke-linejoin="round"/>
<path d="M12.9019 9.45953C13.1927 6.53077 13.1929 4.92214 12.9019 2.12127C10.101 1.83023 8.49236 1.83039 5.5636 2.12127" stroke="#ED685A" stroke-width="2.4083" stroke-linecap="round" stroke-linejoin="round"/>
</svg>
