<svg width="36" height="34" viewBox="0 0 36 34" fill="none" xmlns="http://www.w3.org/2000/svg">
<path d="M7.44932 11.111C10.2625 11.111 11.8449 9.52855 11.8449 6.71537C11.8449 3.90218 10.2625 2.31976 7.44932 2.31976C4.63613 2.31976 3.05371 3.90218 3.05371 6.71537C3.05371 9.52855 4.63613 11.111 7.44932 11.111Z" fill="white" stroke="#ED685A" stroke-width="2.4083" stroke-linecap="round" stroke-linejoin="round"/>
<path d="M7.44958 30.8913C1.95508 30.8913 1.95508 22.3199 1.95508 15.5067C6.34379 14.1843 8.74589 14.2383 12.9441 15.5067C12.9441 22.3199 12.9441 30.8913 7.44958 30.8913Z" fill="#F7D7D2" stroke="#ED685A" stroke-width="2.4083" stroke-linecap="round" stroke-linejoin="round"/>
<path d="M28.4605 11.111C31.2737 11.111 32.8561 9.52855 32.8561 6.71537C32.8561 3.90218 31.2737 2.31976 28.4605 2.31976C25.6474 2.31976 24.0649 3.90218 24.0649 6.71537C24.0649 9.52855 25.6474 11.111 28.4605 11.111Z" fill="white" stroke="#ED685A" stroke-width="2.4083" stroke-linecap="round" stroke-linejoin="round"/>
<path d="M28.4608 15.5065C22.9663 15.5065 22.9663 23.2213 22.9663 30.0345C27.2582 31.11 29.6638 31.1333 33.9553 30.0345C33.9553 23.2213 33.9553 15.5065 28.4608 15.5065Z" fill="#F7D7D2" stroke="#ED685A" stroke-width="2.4083" stroke-linecap="round" stroke-linejoin="round"/>
<path d="M18.0103 3.01379L18.0103 31.9134" stroke="#ED685A" stroke-width="2.4083" stroke-linecap="round"/>
</svg>
