<svg width="33" height="33" viewBox="0 0 33 33" fill="none" xmlns="http://www.w3.org/2000/svg">
<path d="M6.18188 24.2601C6.2923 25.3615 7.15945 26.2407 8.25827 26.374C11.0619 26.7142 13.9909 27.1503 17.0042 27.1503C20.0175 27.1503 22.9465 26.7142 25.7501 26.374C26.8489 26.2407 27.7161 25.3615 27.8265 24.2601C28.1348 21.185 28.5269 17.9693 28.5269 14.6594C28.5269 11.3494 28.1348 8.13369 27.8265 5.05862C27.7161 3.95727 26.8489 3.07803 25.7501 2.94471C22.9465 2.60454 20.0175 2.16846 17.0042 2.16846C13.9909 2.16846 11.0619 2.60454 8.25826 2.94471C7.15945 3.07803 6.2923 3.95727 6.18188 5.05862C5.87357 8.13369 5.48145 11.3494 5.48145 14.6594C5.48145 17.9693 5.87357 21.185 6.18188 24.2601Z" fill="white" stroke="#ED685A" stroke-width="2.4083" stroke-linejoin="round"/>
<path d="M9.81445 26.4874L9.81445 30.2164" stroke="#ED685A" stroke-width="2.4083" stroke-linecap="round" stroke-linejoin="round"/>
<path d="M24.0967 26.4874L24.0967 30.2164" stroke="#ED685A" stroke-width="2.4083" stroke-linecap="round" stroke-linejoin="round"/>
<path d="M28.5187 13.7764H5.49121C5.54173 11.2611 5.79629 8.80327 6.04277 6.4235C6.09019 5.9656 6.13732 5.51059 6.18263 5.05862C6.29305 3.95727 7.16021 3.07803 8.25902 2.94471C8.6856 2.89295 9.11508 2.83897 9.54732 2.78465C11.9559 2.48193 14.4501 2.16846 17.0049 2.16846C19.5598 2.16846 22.054 2.48193 24.4625 2.78465C24.8948 2.83897 25.3243 2.89295 25.7509 2.94471C26.8497 3.07803 27.7168 3.95727 27.8272 5.05862C27.8726 5.5106 27.9197 5.96562 27.9671 6.42353C28.2136 8.80329 28.4681 11.2611 28.5187 13.7764Z" fill="#F7D7D2" stroke="#ED685A" stroke-width="2.4083" stroke-linejoin="round"/>
<path d="M12.1474 21.1099C11.6971 21.1099 11.332 20.7246 11.332 20.2494C11.332 19.7741 11.6971 19.3888 12.1474 19.3888" stroke="#ED685A" stroke-width="2.4083" stroke-linecap="round" stroke-linejoin="round"/>
<path d="M12.1485 19.3895C12.5988 19.3895 12.9639 19.7748 12.9639 20.2501C12.9639 20.7254 12.5988 21.1107 12.1485 21.1107" stroke="#ED685A" stroke-width="2.4083" stroke-linecap="round" stroke-linejoin="round"/>
<path d="M21.7612 21.1101C21.3109 21.1101 20.9458 20.7248 20.9458 20.2495C20.9458 19.7743 21.3109 19.389 21.7612 19.389" stroke="#ED685A" stroke-width="2.4083" stroke-linecap="round" stroke-linejoin="round"/>
<path d="M21.7613 19.3897C22.2116 19.3897 22.5767 19.775 22.5767 20.2503C22.5767 20.7256 22.2116 21.1108 21.7613 21.1108" stroke="#ED685A" stroke-width="2.4083" stroke-linecap="round" stroke-linejoin="round"/>
</svg>
