<svg width="32" height="32" viewBox="0 0 32 32" fill="none" xmlns="http://www.w3.org/2000/svg">
<circle cx="8.14732" cy="7.46153" r="5.53502" fill="#F7D7D2" stroke="#ED685A" stroke-width="2.4083"/>
<circle cx="22.534" cy="9.16878" r="3.8279" fill="#F7D7D2" stroke="#ED685A" stroke-width="2.4083"/>
<path d="M9.35055 29.695C8.25692 29.6003 7.36348 28.7574 7.20218 27.6716C6.99684 26.2893 6.79053 24.8583 6.79053 23.3929C6.79053 21.9274 6.99684 20.4965 7.20218 19.1142C7.36348 18.0284 8.25692 17.1854 9.35055 17.0907C9.53696 17.0746 9.72406 17.0582 9.91183 17.0418C11.7612 16.8799 13.6763 16.7122 15.638 16.7122C17.5996 16.7122 19.5147 16.8799 21.3641 17.0418C21.5519 17.0582 21.739 17.0746 21.9254 17.0907C23.019 17.1854 23.9125 18.0284 24.0738 19.1142C24.1612 19.7027 24.2488 20.3 24.3206 20.9049C26.4982 19.9316 29.3882 18.6589 29.3882 18.6589V28.1271C29.3882 28.1271 26.4982 26.8543 24.3205 25.881C24.2488 26.4859 24.1612 27.0831 24.0738 27.6716C23.9125 28.7574 23.019 29.6003 21.9254 29.695C21.739 29.7112 21.5519 29.7276 21.3641 29.744C19.5147 29.9059 17.5996 30.0736 15.638 30.0736C13.6763 30.0736 11.7612 29.9059 9.91186 29.744C9.72407 29.7276 9.53696 29.7112 9.35055 29.695Z" fill="#F7D7D2" stroke="#ED685A" stroke-width="2.4083" stroke-linejoin="round"/>
</svg>
