<svg width="33" height="33" viewBox="0 0 33 33" fill="none" xmlns="http://www.w3.org/2000/svg">
<path d="M17.857 11.2321C20.2847 11.2321 22.2526 9.26409 22.2526 6.83646C22.2526 4.40884 20.2847 2.44086 17.857 2.44086C15.4294 2.44086 13.4614 4.40884 13.4614 6.83646C13.4614 9.26409 15.4294 11.2321 17.857 11.2321Z" stroke="#ED685A" stroke-width="2.4083" stroke-linecap="round" stroke-linejoin="round"/>
<path d="M12.3703 31.0123C16.6187 31.0123 20.0628 27.5682 20.0628 23.3198C20.0628 19.0713 16.6187 15.6273 12.3703 15.6273C8.12179 15.6273 4.67773 19.0713 4.67773 23.3198C4.67773 27.5682 8.12179 31.0123 12.3703 31.0123Z" fill="#F7D7D2"/>
<path d="M17.8564 11.2321V17.615C17.8564 18.9451 18.939 19.9956 20.2641 20.1108C25.116 20.5323 26.8282 22.6903 28.3619 31.0123" stroke="#ED685A" stroke-width="2.4083" stroke-linecap="round" stroke-linejoin="round"/>
<path d="M12.3623 15.6273C10.9737 15.6287 9.61144 16.0059 8.41995 16.7189C7.22846 17.432 6.2522 18.4542 5.59472 19.6772C4.93724 20.9003 4.62306 22.2784 4.68552 23.6656C4.74798 25.0527 5.18475 26.3971 5.94949 27.5561C6.71423 28.7151 7.77842 29.6454 9.02916 30.2485C10.2799 30.8516 11.6706 31.1048 13.0536 30.9814C14.4367 30.858 15.7605 30.3626 16.8848 29.5476C18.009 28.7327 18.8917 27.6286 19.4392 26.3525" stroke="#ED685A" stroke-width="2.4083" stroke-linecap="round" stroke-linejoin="round"/>
</svg>
